<?xml version="1.0" encoding="utf-8"?>
<!DOCTYPE svg PUBLIC "-//W3C//DTD SVG 1.1//EN" "http://www.w3.org/Graphics/SVG/1.1/DTD/svg11.dtd">
<svg version="1.1" id="VARG" xmlns="http://www.w3.org/2000/svg" xmlns:xlink="http://www.w3.org/1999/xlink" x="0px" y="0px"
 width="170px" height="110px" viewBox="0 0 170 110" enable-background="new 0 0 170 110" xml:space="preserve">
<g>
<path fill="#FFFFFF" d="M85.607,106.111c-45.197,0-81.845-22.999-81.845-51.363c0-28.363,36.647-51.363,81.845-51.363
c45.198,0,81.848,23,81.848,51.363C167.455,83.112,130.806,106.111,85.607,106.111"/>
<path fill="#007CC2" stroke="#007CC2" stroke-width="0.3112" d="M167.03,54.688c0,28.354-36.543,51.338-81.63,51.338
c-13.288,0-25.836-2.001-36.926-5.542l14.453-53.866h7.077l-6.394,24.023h10.36l7.3-27.447H63.835l5.537-20.852
c0.693-2.609,3.511-6.54,7.355-6.545c2.274,0,5.102,1.135,5.228,2.588c-2.902,0-5.304,2.771-5.304,5.806s2.401,5.537,5.304,5.537
c1.869,0,6.141-2.107,5.892-6.804c-0.156-2.907-1.849-8.632-11.119-8.845c-10.766-0.233-18.192,9.367-20.847,19.083
c-1.57,5.78-5.466,19.57-8.794,32.118l-8.506,31.464C17.527,87.459,3.763,72.084,3.763,54.688C3.763,26.339,40.313,3.35,85.4,3.35
S167.03,26.339,167.03,54.688z M24.194,70.641l3.389-12.67c17.355,0.263,20.72-3.932,23.121-14.777
c1.687-7.604-2.503-13.466-10.087-13.466H19.898l-0.907,3.435h4.549l-9.954,37.479H24.194z M34.148,33.162
c5.436-0.213,7.533,1.079,5.436,10.031c-2.73,11.529-6.043,11.348-11.094,11.348L34.148,33.162z M162.433,48.046
c0-3.11-2.325-5.648-5.178-5.648c-2.305,0-5.562,1.505-7.888,5.253l1.135-4.457h-14.148l-0.907,3.424h3.789l-6.393,24.023h10.359
c0,0,3.896-14.489,3.865-14.52c1.546-4.483,4.397-9.706,5.233-8.997c-0.887,4.245,2.198,6.57,4.954,6.57
C160.107,53.694,162.433,51.167,162.433,48.046z M114.499,57.971h17.462c0.132-0.457,0.203-0.766,0.273-1.186
c1.926-9.109-2.599-14.909-9.797-14.909c-7.792,0-14.99,2.634-17.994,14.909c-1.996,8.125,2.351,14.646,10.056,14.914
c6.925,0.232,13.465-1.692,16.728-11.09h-10.613l-0.633,2.376c-1.262,4.752-2.954,5.278-4.823,5.278
c-1.874,0-2.781-2.375-1.996-5.278L114.499,57.971z M116.444,50.584c0.78-2.908,2.527-5.41,4.827-5.283
c2.25,0,2.776,2.375,1.991,5.283l-0.982,3.693h-6.824L116.444,50.584z M100.653,67.211h-8.845l15.233-24.018H84.808L83.9,46.617
h8.846L77.761,70.641h21.986L100.653,67.211z"/>
</g>
</svg>
