<?xml version="1.0" encoding="utf-8"?>
<!-- Generator: Adobe Illustrator 20.1.0, SVG Export Plug-In . SVG Version: 6.00 Build 0)  -->
<svg version="1.1" id="Black_on_White" xmlns="http://www.w3.org/2000/svg" xmlns:xlink="http://www.w3.org/1999/xlink" x="0px"
	 y="0px" viewBox="0 0 977 87" style="enable-background:new 0 0 977 87;" xml:space="preserve" width="977" height="87">
<style type="text/css">
	.st0{font-family:'BebasNeueBold';}
	.st1{font-size:119.169px;}
	.st2{letter-spacing:1;}
</style>
<title>logo.rfi</title>
<text transform="matrix(1 0 0 1 -3 85.292)" class="st0 st1">R</text>
<text transform="matrix(1 0 0 1 45.537 85.292)" class="st0 st1">e</text>
<text transform="matrix(1 0 0 1 89.557 85.292)" class="st0 st1">n</text>
<text transform="matrix(1 0 0 1 141.728 85.292)" class="st0 st1">a</text>
<text transform="matrix(1 0 0 1 191.444 85.292)" class="st0 st1">i</text>
<text transform="matrix(1 0 0 1 214.442 85.292)" class="st0 st1">s</text>
<text transform="matrix(1 0 0 1 260.56 85.292)" class="st0 st1">s</text>
<text transform="matrix(1 0 0 1 306.153 85.292)" class="st0 st1">a</text>
<text transform="matrix(1 0 0 1 355.941 85.292)" class="st0 st1">n</text>
<text transform="matrix(1 0 0 1 407.052 85.292)" class="st0 st1">c</text>
<text transform="matrix(1 0 0 1 453.2161 85.292)" class="st0 st1 st2">e </text>
<text transform="matrix(1 0 0 1 520.308 85.292)" class="st0 st1">F</text>
<text transform="matrix(1 0 0 1 562.385 85.292)" class="st0 st1">i</text>
<text transform="matrix(1 0 0 1 586.3721 85.292)" class="st0 st1">t</text>
<text transform="matrix(1 0 0 1 630.272 85.292)" class="st0 st1">n</text>
<text transform="matrix(1 0 0 1 680.953 85.292)" class="st0 st1">e</text>
<text transform="matrix(1 0 0 1 725.761 85.292)" class="st0 st1">s</text>
<text transform="matrix(1 0 0 1 771.8779 85.292)" class="st0 st1 st2">s </text>
<text transform="matrix(1 0 0 1 839.6841 85.292)" class="st0 st1">I</text>
<text transform="matrix(1 0 0 1 862.015 85.292)" class="st0 st1">n</text>
<text transform="matrix(1 0 0 1 913.125 85.292)" class="st0 st1">c</text>
<text transform="matrix(1 0 0 1 959.0391 85.292)" class="st0 st1 st2">.</text>
</svg>
