<svg xmlns:rdf="http://www.w3.org/1999/02/22-rdf-syntax-ns#" xmlns="http://www.w3.org/2000/svg" xml:space="preserve" height="45" width="202.4" version="1.0" xmlns:cc="http://creativecommons.org/ns#" xmlns:dc="http://purl.org/dc/elements/1.1/"><metadata><rdf:RDF><cc:Work rdf:about=""><dc:format>image/svg+xml</dc:format><dc:type rdf:resource="http://purl.org/dc/dcmitype/StillImage"/><dc:title/></cc:Work></rdf:RDF></metadata><defs/><g fill-rule="nonzero" transform="matrix(1.25,0,0,-1.25,-230.77852,603.93331)"><path d="m198,19.875c-1.025,0-2.6125,0.07625-3.3438,0.1875-0.28125,0.04125-0.4375,0.155-0.4375,0.4375v9.2188c0,0.153,0.12,0.281,0.28,0.281h1.4062c0.15375,0,0.25-0.1275,0.25-0.28125v-3.4688c0.325,0.01625,1.48,0.0625,1.8438,0.0625h0.3125l2.0312,3.4062c0.07,0.14,0.13,0.282,0.28,0.282h1.7188c0.12,0,0.16-0.091,0.16-0.188,0-0.03125-0.002-0.05125-0.0312-0.09375l-2.22-3.78c1.1538-0.4475,1.9062-1.26,1.9062-2.75v-0.125c0-2.405-1.9862-3.1875-4.1562-3.1875zm0,1.6875c1.41,0,2.2188,0.445,2.2188,1.5v0.125c0,1.2375-0.765,1.5312-2.2188,1.5312-0.235,0-1.615-0.04875-1.8438-0.0625v-3.0312c0.25375-0.0275,1.55-0.0625,1.8438-0.0625z" transform="matrix(0.8,0,0,-0.8,177.42457,485.14665)" fill="#827f80"/><path d="m150.22,19.875c-1.0288,0-2.6112,0.07625-3.3438,0.1875-0.28375,0.04125-0.4375,0.155-0.4375,0.4375v9.2188c0,0.15375,0.1275,0.28125,0.28125,0.28125h1.4062c0.155,0,0.25-0.1275,0.25-0.28125v-3.4688c0.32375,0.01625,1.4762,0.0625,1.8438,0.0625h0.3125l2.0312,3.4062c0.07,0.14,0.13,0.282,0.28,0.282h1.7188c0.11125,0,0.15625-0.09125,0.15625-0.1875,0-0.03125-0.002-0.05125-0.0312-0.09375l-2.22-3.78c1.1538-0.4475,1.9062-1.26,1.9062-2.75v-0.125c0-2.405-1.99-3.1875-4.1562-3.1875zm0,1.6875c1.4075,0,2.2188,0.445,2.2188,1.5v0.125c0,1.2375-0.77125,1.5312-2.2188,1.5312-0.2425,0-1.62-0.04875-1.8438-0.0625v-3.0312c0.25125-0.0275,1.5475-0.0625,1.8438-0.0625z" transform="matrix(0.8,0,0,-0.8,177.42457,485.14665)" fill="#827f80"/><path d="m124.69,19.875c-2.3225,0-4.4688,1.3112-4.4688,4.4062v1.4375c0,3.0962,2.1462,4.375,4.4688,4.375,2.3212,0,4.4688-1.2788,4.4688-4.375v-1.4375c0-3.095-2.1475-4.4062-4.4688-4.4062zm0,1.7188c1.3788,0,2.5,0.83,2.5,2.6875v1.4375c0,1.8575-1.1212,2.6875-2.5,2.6875-1.38,0-2.5-0.83-2.5-2.6875v-1.4375c0-1.8575,1.12-2.6875,2.5-2.6875z" transform="matrix(0.8,0,0,-0.8,177.42457,485.14665)" fill="#827f80"/><path d="m91.875,19.875c-2.3212,0-4.4688,1.3112-4.4688,4.4062v1.4375c0,3.0962,2.1475,4.375,4.4688,4.375,2.3238,0,4.4688-1.2788,4.4688-4.375v-1.4375c0-3.095-2.145-4.4062-4.4688-4.4062zm0,1.7188c1.38,0,2.5,0.83,2.5,2.6875v1.4375c0,1.8575-1.12,2.6875-2.5,2.6875-1.3788,0-2.5-0.83-2.5-2.6875v-1.4375c0-1.8575,1.1212-2.6875,2.5-2.6875z" transform="matrix(0.8,0,0,-0.8,177.42457,485.14665)" fill="#827f80"/><path fill="#827f80" d="m326.93,463.37c0-0.944,0.035-0.969,0.888-0.969h2.852c0.121,0,0.224-0.101,0.224-0.225v-0.719c0-0.159-0.057-0.215-0.224-0.237-0.362-0.057-1.094-0.158-2.433-0.158-1.873,0-2.862-0.012-2.862,2.308v3.563c0,2.319,0.989,2.306,2.862,2.306,1.339,0,2.071-0.101,2.433-0.157,0.167-0.021,0.224-0.079,0.224-0.237v-0.719c0-0.123-0.103-0.226-0.224-0.226h-2.852c-0.853,0-0.888-0.026-0.888-0.967v-1.033h3.604c0.124,0,0.223-0.102,0.223-0.224v-0.813c0-0.123-0.099-0.224-0.223-0.224h-3.604v-1.269z"/><path fill="#827f80" d="m343.58,461.06c-0.995,0-2.004,0.171-2.545,0.296-0.111,0.022-0.214,0.1-0.214,0.224v0.811c0,0.123,0.103,0.214,0.214,0.214h0.023c0.451-0.056,1.504-0.203,2.545-0.203,1.001,0,1.308,0.359,1.308,1.011,0,0.845-2.016,1.312-3,1.718-0.979,0.405-1.326,1.181-1.326,1.968,0,1.239,0.997,2.14,3.091,2.14,1.073,0,2.055-0.204,2.438-0.296,0.113-0.022,0.202-0.101,0.202-0.213v-0.834c0-0.111-0.077-0.202-0.191-0.202h-0.022c-0.744,0.067-1.514,0.204-2.493,0.204-0.835,0-1.459-0.293-1.459-0.799,0-0.371,0.423-0.711,0.924-0.91,0.5-0.196,1.154-0.452,1.903-0.753,0.949-0.384,1.564-0.942,1.564-2.023,0-1.136-0.709-2.353-2.962-2.353"/><path fill="#827f80" d="m324,467.84-2.246,0,0-6.468c0-0.123-0.103-0.225-0.228-0.225h-1.114c-0.123,0-0.225,0.102-0.225,0.225v6.468h-2.248c-0.122,0-0.224,0.077-0.224,0.201v0.89c0,0.125,0.102,0.214,0.224,0.214h6.061c0.122,0,0.224-0.089,0.224-0.214v-0.89c0-0.124-0.102-0.201-0.224-0.201"/><path fill="#827f80" d="m313.22,461.06c-1.812,0-3.372,0.788-3.372,3.188v4.686c0,0.125,0.103,0.214,0.226,0.214h1.113c0.125,0,0.225-0.089,0.225-0.214v-4.686c0-1.284,0.594-1.893,1.808-1.893,1.217,0,1.809,0.609,1.809,1.893v4.686c0,0.125,0.101,0.214,0.225,0.214h1.114c0.125,0,0.227-0.089,0.227-0.214v-4.686c0-2.4-1.561-3.188-3.375-3.188"/><path fill="#827f80" d="m304.2,463.37c0-0.944,0.036-0.969,0.887-0.969h2.851c0.124,0,0.225-0.101,0.225-0.225v-0.719c0-0.159-0.057-0.215-0.225-0.237-0.361-0.057-1.094-0.158-2.433-0.158-1.869,0-2.86-0.012-2.86,2.308v3.563c0,2.319,0.991,2.306,2.86,2.306,1.339,0,2.072-0.101,2.433-0.157,0.168-0.021,0.225-0.079,0.225-0.237v-0.719c0-0.123-0.101-0.226-0.225-0.226h-2.851c-0.851,0-0.887-0.026-0.887-0.967v-1.033h3.603c0.124,0,0.225-0.102,0.225-0.224v-0.813c0-0.123-0.101-0.224-0.225-0.224h-3.603v-1.269z"/><path fill="#827f80" d="m269.22,461.06c-0.994,0-2.004,0.171-2.545,0.296-0.113,0.022-0.214,0.1-0.214,0.224v0.811c0,0.123,0.101,0.214,0.214,0.214h0.022c0.45-0.056,1.504-0.203,2.545-0.203,1.003,0,1.307,0.359,1.307,1.011,0,0.845-2.013,1.312-2.996,1.718-0.982,0.405-1.328,1.181-1.328,1.968,0,1.239,0.998,2.14,3.091,2.14,1.074,0,2.056-0.204,2.438-0.296,0.113-0.022,0.202-0.101,0.202-0.213v-0.834c0-0.111-0.078-0.202-0.19-0.202h-0.023c-0.744,0.067-1.515,0.204-2.495,0.204-0.831,0-1.458-0.293-1.458-0.799,0-0.371,0.424-0.712,0.922-0.91,0.5-0.196,1.157-0.452,1.905-0.753,0.951-0.384,1.566-0.942,1.566-2.023,0-1.136-0.709-2.353-2.963-2.353"/><path fill="#827f80" d="m288.94,461.15-1.139,0c-0.271,0-0.508,0-0.685,0.404l-3.054,5.117c-0.033,0.067-0.068,0.091-0.101,0.091-0.032,0-0.057-0.024-0.057-0.091v-5.296c0-0.123-0.09-0.225-0.214-0.225h-0.955c-0.126,0-0.225,0.102-0.225,0.225v7.323c0,0.248,0.2,0.45,0.449,0.45h1.216c0.237,0,0.359-0.068,0.496-0.362l3.176-5.418c0.021-0.055,0.055-0.09,0.09-0.09,0.022,0,0.054,0.035,0.054,0.102v5.554c0,0.125,0.09,0.214,0.215,0.214h0.969c0.124,0,0.215-0.089,0.215-0.214v-7.334c0-0.248-0.203-0.45-0.45-0.45"/><path fill="#827f80" d="m264.2,461.15-1.138,0c-0.1,0-0.178,0.114-0.178,0.225v4.868c0,0.079-0.012,0.112-0.037,0.112-0.008,0-0.031-0.033-0.055-0.067l-1.818-4.025c-0.067-0.123-0.212-0.192-0.358-0.192h-0.586c-0.146,0-0.293,0.069-0.359,0.192l-1.83,4.025c-0.023,0.034-0.047,0.067-0.056,0.067-0.023,0-0.035-0.033-0.035-0.112v-4.868c0-0.111-0.079-0.225-0.18-0.225h-1.136c-0.102,0-0.193,0.057-0.193,0.169v7.379c0,0.248,0.203,0.45,0.451,0.45h0.923c0.179,0,0.338-0.112,0.417-0.27l2.16-4.399c0.056-0.101,0.079-0.157,0.126-0.157,0.044,0,0.067,0.056,0.124,0.157l2.159,4.399c0.079,0.158,0.238,0.27,0.417,0.27h0.924c0.247,0,0.45-0.202,0.45-0.45v-7.379c0-0.112-0.091-0.169-0.192-0.169"/><path fill="#827f80" d="m245.34,461.15-1.113,0c-0.126,0-0.228,0.102-0.228,0.225v3.262h-3.566v-3.262c0-0.123-0.101-0.225-0.223-0.225h-1.116c-0.125,0-0.226,0.102-0.226,0.225v7.559c0,0.125,0.101,0.214,0.226,0.214h1.116c0.122,0,0.223-0.089,0.223-0.214v-2.924h3.566v2.924c0,0.125,0.102,0.214,0.228,0.214h1.113c0.123,0,0.225-0.089,0.225-0.214v-7.559c0-0.123-0.102-0.225-0.225-0.225"/><path fill="#827f80" d="m237.22,467.84-2.246,0,0-6.468c0-0.123-0.101-0.225-0.227-0.225h-1.112c-0.124,0-0.225,0.102-0.225,0.225v6.468h-2.249c-0.124,0-0.226,0.077-0.226,0.201v0.89c0,0.125,0.102,0.214,0.226,0.214h6.059c0.124,0,0.226-0.089,0.226-0.214v-0.89c0-0.124-0.102-0.201-0.226-0.201"/><path d="m195.95,476.1c-0.224,0.283-0.63,0.327-0.913,0.106-0.279-0.223-0.329-0.628-0.107-0.911,0.224-0.282,0.632-0.329,0.912-0.108,0.281,0.225,0.331,0.631,0.108,0.913m6.527,2.448c-0.052,0.356-0.382,0.6-0.738,0.547-0.354-0.052-0.6-0.379-0.548-0.735s0.382-0.599,0.737-0.548c0.354,0.053,0.601,0.38,0.549,0.736m3.158-26.068c-0.353-0.052-0.599-0.382-0.547-0.737,0.052-0.356,0.383-0.6,0.736-0.547,0.355,0.052,0.602,0.38,0.549,0.736-0.05,0.355-0.381,0.6-0.738,0.548m6.085,2.623c-0.279-0.223-0.329-0.63-0.106-0.911,0.222-0.282,0.631-0.327,0.911-0.106,0.282,0.223,0.33,0.629,0.108,0.912-0.222,0.28-0.63,0.328-0.913,0.105m-19.791,1.22c0.268-0.723,1.064-1.083,1.777-0.817,0.719,0.265,1.086,1.056,0.819,1.778-0.265,0.715-1.061,1.082-1.777,0.815-0.716-0.265-1.084-1.063-0.819-1.776m2.623-2.339c0.207-0.666,0.908-1.03,1.569-0.822,0.662,0.204,1.033,0.905,0.826,1.569-0.206,0.661-0.912,1.03-1.573,0.824-0.661-0.205-1.029-0.909-0.822-1.571m3.289-1.587c0.137-0.541,0.685-0.863,1.223-0.726,0.539,0.138,0.865,0.682,0.727,1.223-0.137,0.539-0.686,0.864-1.225,0.726-0.537-0.138-0.862-0.684-0.725-1.223m3.563-0.777c0.09-0.452,0.529-0.743,0.979-0.653,0.448,0.091,0.741,0.528,0.65,0.98-0.089,0.448-0.528,0.74-0.978,0.651-0.449-0.09-0.741-0.53-0.651-0.978m-10.32,10.337c0.685,0.339,0.965,1.169,0.625,1.854-0.341,0.689-1.168,0.965-1.855,0.625-0.681-0.337-0.967-1.164-0.626-1.853,0.34-0.686,1.172-0.964,1.856-0.626m-0.048,3.658c0.604,0.338,0.819,1.105,0.48,1.708-0.34,0.606-1.105,0.819-1.709,0.478-0.605-0.338-0.819-1.101-0.479-1.707,0.339-0.603,1.103-0.819,1.708-0.479m0.784,3.648c0.471,0.296,0.61,0.92,0.312,1.391s-0.919,0.607-1.389,0.31c-0.468-0.298-0.61-0.916-0.311-1.388,0.297-0.47,0.919-0.61,1.388-0.313m1.651,3.24c0.374,0.266,0.463,0.784,0.198,1.157-0.268,0.378-0.783,0.463-1.157,0.198-0.375-0.266-0.467-0.781-0.199-1.159,0.266-0.373,0.784-0.461,1.158-0.196m-1.444-14.066c0.762,0.329,1.113,1.215,0.784,1.979-0.33,0.766-1.214,1.114-1.975,0.786-0.763-0.329-1.119-1.211-0.788-1.978,0.329-0.764,1.218-1.116,1.979-0.787m16.842-5.087c-0.306-0.132-0.448-0.487-0.316-0.793,0.134-0.31,0.488-0.449,0.794-0.317,0.307,0.132,0.45,0.487,0.318,0.795-0.133,0.306-0.489,0.447-0.796,0.315m7.609,14.984c-0.682-0.338-0.963-1.168-0.625-1.852,0.342-0.69,1.17-0.965,1.855-0.625,0.683,0.336,0.966,1.163,0.625,1.852-0.339,0.683-1.171,0.964-1.855,0.625m0.048-3.657c-0.602-0.338-0.82-1.104-0.48-1.71,0.342-0.605,1.106-0.816,1.708-0.476,0.605,0.339,0.82,1.1,0.48,1.706-0.34,0.605-1.103,0.82-1.708,0.48m-0.782-3.647c-0.469-0.298-0.61-0.92-0.313-1.389,0.299-0.471,0.92-0.609,1.389-0.312s0.611,0.916,0.312,1.389c-0.298,0.468-0.92,0.608-1.388,0.312m-1.652-3.241c-0.375-0.266-0.463-0.784-0.198-1.158,0.266-0.376,0.784-0.463,1.16-0.198,0.374,0.264,0.462,0.781,0.195,1.159-0.264,0.373-0.782,0.463-1.157,0.197m-15.08,19.946c-0.133,0.309-0.489,0.448-0.796,0.315-0.306-0.131-0.449-0.486-0.316-0.795,0.132-0.305,0.489-0.445,0.795-0.314,0.306,0.133,0.449,0.489,0.317,0.794m16.621-3.764c-0.266,0.721-1.063,1.082-1.777,0.816-0.717-0.264-1.085-1.057-0.818-1.776,0.266-0.718,1.062-1.084,1.776-0.819,0.717,0.264,1.085,1.062,0.819,1.779m-2.622,2.337c-0.207,0.664-0.91,1.031-1.57,0.823-0.66-0.205-1.033-0.907-0.825-1.571,0.206-0.661,0.912-1.03,1.571-0.823,0.662,0.206,1.03,0.911,0.824,1.571m-3.287,1.586c-0.139,0.542-0.688,0.864-1.224,0.726-0.538-0.137-0.865-0.682-0.726-1.224,0.137-0.538,0.687-0.865,1.224-0.725,0.537,0.137,0.863,0.686,0.726,1.223m-3.566,0.776c-0.09,0.454-0.527,0.742-0.976,0.652-0.451-0.09-0.744-0.524-0.652-0.977,0.089-0.449,0.527-0.742,0.978-0.651,0.449,0.091,0.74,0.528,0.65,0.976m10.57-9.581c-0.763-0.329-1.649,0.024-1.979,0.788-0.33,0.767,0.024,1.648,0.788,1.978,0.762,0.328,1.646-0.02,1.977-0.787,0.33-0.762-0.023-1.649-0.786-1.979m-16.601,12.913c-0.119,0.445-0.575,0.705-1.02,0.586-0.442-0.119-0.708-0.572-0.588-1.016,0.119-0.446,0.577-0.707,1.018-0.589,0.445,0.119,0.709,0.574,0.59,1.019m8.918-0.432c0.119,0.445-0.147,0.899-0.591,1.018-0.442,0.118-0.898-0.141-1.017-0.587-0.119-0.445,0.145-0.9,0.588-1.018,0.444-0.119,0.901,0.143,1.02,0.587m-9.508-32.26c-0.441,0.118-0.898-0.145-1.018-0.589-0.118-0.444,0.146-0.898,0.588-1.016,0.445-0.119,0.902,0.142,1.02,0.587,0.119,0.443-0.145,0.899-0.59,1.018m8.487,0c-0.442-0.119-0.706-0.575-0.588-1.019,0.119-0.444,0.577-0.705,1.018-0.586,0.445,0.118,0.709,0.572,0.59,1.017-0.118,0.443-0.576,0.706-1.02,0.588m-22.657,11.47c-0.051-0.983,0.703-1.81,1.676-1.861,0.98-0.051,1.813,0.692,1.865,1.676,0.051,0.976-0.7,1.81-1.676,1.861-0.977,0.051-1.814-0.7-1.865-1.676m1.898-4.079c-0.093-0.887,0.546-1.672,1.43-1.766,0.881-0.092,1.673,0.543,1.766,1.43,0.093,0.882-0.549,1.674-1.431,1.766-0.883,0.093-1.672-0.548-1.765-1.43m3.064-3.534c-0.112-0.707,0.368-1.363,1.07-1.475,0.703-0.111,1.364,0.365,1.476,1.071,0.111,0.703-0.369,1.363-1.073,1.474-0.702,0.111-1.362-0.368-1.473-1.07m3.797-2.721c-0.124-0.578,0.245-1.142,0.818-1.264,0.575-0.122,1.14,0.243,1.263,0.821,0.122,0.573-0.245,1.14-0.82,1.262-0.574,0.122-1.14-0.246-1.261-0.819m-6.895,17.391c0.977,0.051,1.727,0.885,1.677,1.863-0.052,0.983-0.885,1.727-1.866,1.675-0.972-0.051-1.727-0.878-1.675-1.861,0.051-0.977,0.888-1.728,1.864-1.677m1.799,4.325c0.882,0.093,1.524,0.884,1.431,1.766-0.093,0.886-0.885,1.524-1.766,1.431-0.885-0.093-1.524-0.881-1.43-1.767,0.092-0.882,0.881-1.523,1.765-1.43m2.772,3.892c0.704,0.111,1.184,0.773,1.072,1.477-0.111,0.706-0.772,1.181-1.476,1.07-0.702-0.111-1.182-0.767-1.07-1.474,0.111-0.703,0.771-1.185,1.474-1.073m3.585,2.974c0.575,0.123,0.942,0.687,0.82,1.263-0.123,0.577-0.687,0.939-1.262,0.817-0.574-0.122-0.943-0.683-0.82-1.261,0.122-0.574,0.688-0.941,1.262-0.819m-8.832-15.81c1.062,0,1.925,0.864,1.925,1.93,0,1.07-0.863,1.926-1.925,1.926s-1.929-0.856-1.929-1.928c0-1.064,0.867-1.928,1.929-1.928m17.226-14.524c-0.426,0-0.774-0.346-0.774-0.775s0.348-0.773,0.774-0.773c0.428,0,0.776,0.344,0.776,0.774,0,0.428-0.348,0.774-0.776,0.774m16.549,13.762c-0.973-0.051-1.725-0.885-1.674-1.861,0.052-0.984,0.885-1.727,1.863-1.676,0.974,0.051,1.727,0.878,1.675,1.861-0.05,0.976-0.886,1.727-1.864,1.676m-1.799-4.325c-0.88-0.092-1.523-0.884-1.431-1.766,0.094-0.887,0.887-1.522,1.767-1.43,0.883,0.094,1.523,0.879,1.43,1.766-0.093,0.883-0.883,1.523-1.766,1.43m-2.769-3.893c-0.704-0.112-1.185-0.772-1.072-1.475,0.111-0.706,0.772-1.182,1.475-1.071,0.701,0.112,1.182,0.768,1.071,1.475-0.112,0.703-0.773,1.181-1.474,1.071m-3.586-2.973c-0.576-0.122-0.943-0.689-0.821-1.262,0.123-0.578,0.688-0.943,1.263-0.82,0.574,0.121,0.942,0.685,0.819,1.264-0.122,0.572-0.687,0.94-1.261,0.818m-7.619,31.108c0,0.43-0.348,0.773-0.776,0.773-0.426,0-0.774-0.343-0.774-0.773,0-0.429,0.348-0.774,0.774-0.774,0.428,0,0.776,0.345,0.776,0.774m17.638-12.859c0.052,0.983-0.702,1.81-1.676,1.861-0.977,0.052-1.811-0.692-1.863-1.675-0.051-0.978,0.701-1.812,1.674-1.863,0.978-0.051,1.814,0.7,1.865,1.677m-1.898,4.078c0.093,0.886-0.547,1.674-1.43,1.767-0.879,0.092-1.673-0.545-1.767-1.431-0.092-0.882,0.552-1.674,1.431-1.766,0.884-0.093,1.673,0.548,1.766,1.43m-3.061,3.534c0.112,0.707-0.37,1.363-1.07,1.475-0.704,0.11-1.364-0.365-1.476-1.072-0.112-0.703,0.368-1.365,1.072-1.476,0.701-0.111,1.363,0.37,1.474,1.073m-3.799,2.721c0.124,0.578-0.245,1.139-0.819,1.26-0.576,0.123-1.14-0.239-1.262-0.816-0.122-0.576,0.244-1.14,0.82-1.263,0.574-0.122,1.139,0.245,1.261,0.819m7.569-16.629c-1.064,0-1.926,0.864-1.926,1.93,0,1.07,0.862,1.926,1.929,1.926,1.063,0,1.927-0.856,1.927-1.928,0-1.064-0.864-1.928-1.93-1.928m-12.864-2.5c0.322,0.167,0.441,0.576,0.266,0.896-0.177,0.321-0.577,0.445-0.897,0.268-0.324-0.175-0.441-0.578-0.268-0.899,0.17-0.322,0.574-0.443,0.899-0.265m0.95,1.498c0.293,0.158,0.395,0.512,0.246,0.801-0.156,0.285-0.512,0.395-0.801,0.239-0.288-0.152-0.393-0.517-0.241-0.803,0.158-0.283,0.515-0.39,0.796-0.237m0.473,1.739c0.251,0.137,0.341,0.45,0.204,0.699-0.133,0.252-0.444,0.343-0.695,0.209-0.253-0.138-0.342-0.448-0.212-0.703,0.132-0.246,0.455-0.338,0.703-0.205m-0.083,1.805c0.217,0.125,0.3,0.395,0.187,0.606-0.118,0.216-0.388,0.294-0.599,0.178-0.218-0.113-0.3-0.386-0.181-0.601,0.112-0.214,0.385-0.293,0.593-0.183m-4.11-5.787c-0.175,0.322-0.575,0.441-0.901,0.269-0.324-0.171-0.436-0.573-0.261-0.899,0.169-0.32,0.57-0.447,0.893-0.266,0.326,0.17,0.441,0.575,0.269,0.896m-1.809-0.073c-0.152,0.286-0.513,0.388-0.803,0.239-0.288-0.155-0.389-0.515-0.238-0.799,0.157-0.289,0.514-0.395,0.8-0.241,0.291,0.15,0.397,0.512,0.241,0.801m-1.739,0.466c-0.139,0.248-0.451,0.344-0.698,0.206-0.256-0.139-0.346-0.448-0.208-0.698,0.13-0.251,0.445-0.347,0.695-0.212,0.252,0.141,0.345,0.457,0.211,0.704m-1.504,0.955c-0.114,0.213-0.383,0.29-0.597,0.178-0.215-0.112-0.295-0.385-0.18-0.597,0.113-0.217,0.382-0.296,0.597-0.176,0.214,0.11,0.295,0.379,0.18,0.595m6.778-0.729c-0.198,0.368-0.653,0.51-1.022,0.306-0.364-0.194-0.504-0.65-0.302-1.017,0.198-0.364,0.655-0.497,1.021-0.305,0.363,0.201,0.499,0.66,0.303,1.016m1.275,7.034c0.096-0.179,0.32-0.244,0.495-0.148,0.181,0.096,0.248,0.316,0.15,0.496-0.098,0.182-0.317,0.249-0.501,0.157-0.171-0.1-0.243-0.329-0.144-0.505m-6.176,2.703c0.172-0.327,0.578-0.443,0.9-0.273,0.322,0.176,0.439,0.578,0.268,0.902-0.171,0.321-0.579,0.444-0.901,0.268-0.323-0.174-0.436-0.578-0.267-0.897m1.812,0.071c0.151-0.285,0.508-0.392,0.793-0.236,0.292,0.157,0.394,0.512,0.242,0.798-0.151,0.285-0.51,0.395-0.797,0.236-0.289-0.153-0.39-0.509-0.238-0.798m1.735-0.465c0.135-0.25,0.455-0.342,0.697-0.206,0.257,0.137,0.348,0.449,0.211,0.699-0.132,0.251-0.449,0.343-0.695,0.212-0.252-0.14-0.348-0.456-0.213-0.705m1.501-0.955c0.116-0.214,0.383-0.293,0.604-0.183,0.213,0.122,0.296,0.389,0.18,0.604-0.119,0.215-0.386,0.298-0.599,0.179-0.221-0.12-0.299-0.387-0.185-0.6m-8.547-6.157c-0.181-0.095-0.246-0.319-0.149-0.503,0.097-0.177,0.318-0.244,0.502-0.15,0.177,0.101,0.244,0.324,0.146,0.504-0.098,0.176-0.322,0.246-0.499,0.149m0.733,6.765c-0.327-0.178-0.447-0.574-0.271-0.903,0.175-0.319,0.572-0.441,0.894-0.267,0.329,0.174,0.448,0.579,0.274,0.897-0.171,0.323-0.577,0.45-0.897,0.273m-0.957-1.505c-0.287-0.155-0.393-0.514-0.243-0.798,0.158-0.285,0.515-0.395,0.8-0.239,0.288,0.153,0.397,0.513,0.242,0.8-0.159,0.284-0.514,0.39-0.799,0.237m-0.469-1.74c-0.248-0.133-0.34-0.447-0.207-0.695,0.139-0.254,0.45-0.345,0.701-0.211,0.249,0.136,0.344,0.454,0.209,0.7-0.136,0.252-0.448,0.345-0.703,0.206m0.075-1.808c-0.212-0.118-0.293-0.388-0.177-0.601,0.118-0.218,0.387-0.293,0.598-0.174,0.215,0.109,0.302,0.383,0.18,0.597-0.119,0.212-0.382,0.294-0.601,0.178m3.714,5.881c0.195-0.363,0.063-0.819-0.302-1.017-0.37-0.198-0.823-0.057-1.021,0.307-0.2,0.363-0.062,0.82,0.302,1.017,0.366,0.198,0.826,0.061,1.021-0.307m1.971-13.73c0.448-0.135,0.917,0.122,1.044,0.566,0.129,0.448-0.121,0.916-0.568,1.047-0.45,0.132-0.917-0.124-1.049-0.573-0.13-0.442,0.127-0.908,0.573-1.04m2.378,0.53c0.401-0.117,0.814,0.109,0.932,0.508,0.116,0.394-0.108,0.81-0.508,0.927-0.397,0.12-0.817-0.11-0.932-0.506-0.116-0.398,0.114-0.813,0.508-0.929m2.15,1.302c0.311-0.093,0.638,0.087,0.729,0.396,0.095,0.316-0.085,0.644-0.396,0.734-0.314,0.095-0.642-0.088-0.736-0.399-0.089-0.31,0.092-0.638,0.403-0.731m1.674,1.847c0.257-0.074,0.523,0.071,0.597,0.323,0.073,0.251-0.071,0.519-0.324,0.595-0.251,0.072-0.518-0.072-0.593-0.325-0.073-0.254,0.071-0.521,0.32-0.593m-9.697-1.778c0.129,0.443-0.125,0.916-0.574,1.046-0.448,0.131-0.911-0.124-1.042-0.574-0.131-0.442,0.12-0.91,0.569-1.042,0.448-0.129,0.915,0.126,1.047,0.57m-1.829,1.671c0.116,0.396-0.115,0.816-0.512,0.934-0.397,0.116-0.808-0.114-0.928-0.511-0.117-0.396,0.108-0.811,0.507-0.929,0.401-0.119,0.813,0.109,0.933,0.506m-1.302,2.151c0.092,0.312-0.088,0.639-0.398,0.726-0.317,0.095-0.644-0.083-0.731-0.397-0.088-0.311,0.081-0.64,0.398-0.732,0.31-0.094,0.639,0.088,0.731,0.403m-0.553,2.385c0.075,0.252-0.068,0.516-0.322,0.594-0.252,0.074-0.517-0.074-0.595-0.326-0.077-0.251,0.073-0.514,0.325-0.589,0.251-0.076,0.516,0.066,0.592,0.321m5.969-7.269c0.15,0.515-0.14,1.054-0.658,1.205-0.514,0.149-1.052-0.143-1.2-0.656-0.148-0.518,0.139-1.052,0.657-1.204,0.513-0.148,1.054,0.147,1.201,0.655m8.231,5.562c-0.052-0.188,0.054-0.388,0.24-0.442,0.192-0.056,0.388,0.052,0.443,0.243,0.057,0.188-0.051,0.387-0.241,0.442-0.186,0.054-0.386-0.054-0.442-0.243m-3.488,8.614c-0.133-0.446,0.125-0.914,0.571-1.046,0.448-0.131,0.915,0.129,1.046,0.574,0.133,0.445-0.122,0.914-0.568,1.045-0.45,0.132-0.916-0.128-1.049-0.573m1.83-1.668c-0.118-0.403,0.111-0.815,0.506-0.932,0.398-0.117,0.812,0.114,0.93,0.51,0.119,0.394-0.108,0.81-0.508,0.926-0.394,0.117-0.808-0.111-0.928-0.504m1.3-2.148c-0.096-0.317,0.089-0.644,0.4-0.735,0.315-0.092,0.64,0.087,0.732,0.4s-0.086,0.64-0.398,0.73c-0.313,0.093-0.645-0.085-0.734-0.395m0.552-2.388c-0.076-0.25,0.068-0.519,0.325-0.592,0.253-0.075,0.517,0.071,0.592,0.325,0.073,0.249-0.069,0.516-0.323,0.591-0.253,0.073-0.523-0.072-0.594-0.324m-14.444,2.147c-0.188,0.056-0.386-0.052-0.439-0.24-0.056-0.19,0.049-0.391,0.239-0.446,0.191-0.055,0.388,0.055,0.443,0.244s-0.051,0.386-0.243,0.442m7.268,5.962c-0.451,0.135-0.913-0.124-1.047-0.569-0.132-0.447,0.121-0.913,0.569-1.046,0.447-0.132,0.913,0.126,1.046,0.569,0.134,0.446-0.122,0.917-0.568,1.046m-2.38-0.532c-0.4,0.115-0.814-0.113-0.932-0.506-0.116-0.397,0.113-0.813,0.51-0.93,0.396-0.117,0.814,0.107,0.929,0.507,0.113,0.395-0.115,0.812-0.507,0.929m-2.15-1.301c-0.315,0.093-0.639-0.089-0.73-0.4-0.092-0.314,0.085-0.639,0.399-0.732,0.312-0.092,0.64,0.089,0.733,0.4,0.09,0.311-0.089,0.639-0.402,0.732m-1.677-1.844c-0.253,0.068-0.519-0.073-0.594-0.327-0.075-0.251,0.072-0.516,0.324-0.589,0.253-0.074,0.516,0.069,0.592,0.321,0.079,0.252-0.071,0.517-0.322,0.595m9.271,2.283c-0.149-0.509-0.686-0.802-1.199-0.65-0.52,0.153-0.804,0.687-0.655,1.202,0.148,0.511,0.685,0.807,1.201,0.658,0.515-0.152,0.809-0.692,0.653-1.21m-8.182-17.081c0.434-0.41,1.119-0.388,1.525,0.045,0.407,0.436,0.392,1.119-0.046,1.528-0.435,0.409-1.12,0.387-1.527-0.048-0.408-0.429-0.389-1.114,0.048-1.525m3.144-0.801c0.39-0.368,0.994-0.35,1.357,0.036,0.365,0.385,0.349,0.995-0.038,1.358-0.386,0.366-0.997,0.344-1.361-0.039-0.363-0.385-0.345-0.997,0.042-1.355m3.332,0.24c0.305-0.288,0.783-0.269,1.069,0.033,0.286,0.301,0.275,0.781-0.03,1.067-0.307,0.287-0.785,0.272-1.072-0.033-0.284-0.301-0.27-0.781,0.033-1.067m3.104,1.179c0.249-0.232,0.637-0.22,0.867,0.027,0.232,0.243,0.221,0.63-0.027,0.864-0.245,0.232-0.633,0.221-0.864-0.025-0.233-0.247-0.221-0.635,0.024-0.866m-12.649,3.752c0.409,0.434,0.388,1.121-0.045,1.528-0.436,0.414-1.118,0.384-1.525-0.047-0.41-0.431-0.395-1.114,0.041-1.527,0.438-0.407,1.123-0.385,1.529,0.046m-1.162,3.089c0.365,0.384,0.347,0.994-0.04,1.362-0.387,0.365-0.993,0.342-1.36-0.042-0.361-0.384-0.344-0.996,0.042-1.359,0.388-0.366,0.995-0.346,1.358,0.039m-0.242,3.331c0.286,0.303,0.269,0.785-0.032,1.07-0.308,0.289-0.787,0.273-1.07-0.033-0.282-0.306-0.274-0.779,0.031-1.067,0.303-0.288,0.784-0.27,1.071,0.03m0.788,3.165c0.228,0.246,0.219,0.633-0.028,0.865-0.246,0.234-0.632,0.219-0.864-0.023-0.235-0.245-0.222-0.632,0.027-0.866,0.244-0.23,0.631-0.22,0.865,0.024m2.69-12.22c0.471,0.501,0.447,1.284-0.052,1.758-0.503,0.472-1.288,0.446-1.757-0.052-0.469-0.505-0.447-1.283,0.054-1.758,0.499-0.471,1.286-0.449,1.755,0.052m13.188,1.596c-0.172-0.183-0.163-0.473,0.02-0.646,0.185-0.17,0.472-0.163,0.644,0.024,0.174,0.181,0.167,0.47-0.02,0.641-0.179,0.175-0.472,0.166-0.644-0.019m1.068,12.329c-0.409-0.434-0.39-1.118,0.047-1.527,0.435-0.411,1.119-0.386,1.526,0.046,0.411,0.436,0.391,1.115-0.047,1.528-0.43,0.409-1.115,0.386-1.526-0.047m1.163-3.088c-0.365-0.386-0.346-0.994,0.042-1.357,0.385-0.367,0.994-0.345,1.357,0.041,0.366,0.383,0.346,0.993-0.041,1.357-0.387,0.363-0.995,0.346-1.358-0.041m0.241-3.332c-0.284-0.304-0.267-0.782,0.035-1.067,0.308-0.289,0.782-0.272,1.069,0.032,0.286,0.303,0.275,0.78-0.033,1.068-0.302,0.285-0.783,0.27-1.071-0.033m-0.785-3.164c-0.232-0.245-0.221-0.634,0.025-0.868,0.249-0.232,0.637-0.219,0.869,0.029,0.23,0.245,0.22,0.633-0.026,0.867-0.249,0.23-0.636,0.219-0.868-0.028m-15.899,11.269c-0.187,0.171-0.474,0.163-0.645-0.019-0.175-0.184-0.166-0.472,0.017-0.645,0.187-0.175,0.475-0.166,0.645,0.018,0.174,0.185,0.166,0.472-0.017,0.646m12.217,2.686c-0.441,0.414-1.119,0.389-1.528-0.044-0.409-0.434-0.391-1.115,0.043-1.528,0.434-0.409,1.122-0.388,1.529,0.045,0.408,0.433,0.39,1.119-0.044,1.527m-3.15,0.806c-0.387,0.364-0.993,0.343-1.358-0.039-0.362-0.387-0.345-0.995,0.043-1.359,0.386-0.365,0.995-0.346,1.356,0.039,0.364,0.389,0.343,0.994-0.041,1.359m-3.33-0.243c-0.307,0.286-0.784,0.269-1.069-0.033-0.286-0.305-0.273-0.781,0.033-1.071,0.301-0.284,0.782-0.269,1.069,0.035,0.284,0.302,0.27,0.783-0.033,1.069m-3.105-1.181c-0.248,0.231-0.636,0.22-0.867-0.025-0.231-0.247-0.22-0.63,0.025-0.865,0.248-0.231,0.635-0.22,0.867,0.026,0.232,0.244,0.219,0.633-0.025,0.864m12.383-2.824c-0.469-0.495-1.257-0.521-1.756-0.048-0.502,0.473-0.521,1.258-0.049,1.756,0.469,0.499,1.253,0.525,1.755,0.054,0.498-0.472,0.522-1.257,0.05-1.762" fill="#f57a14"/></g></svg>
